<svg width="656" height="274" viewBox="0 0 656 274" fill="none" xmlns="http://www.w3.org/2000/svg">
<path d="M17.7177 59.7057C20.6167 65.8754 71.3478 159.385 72.2537 160.156C72.9785 160.927 82.2188 143.768 82.2188 141.647C82.2188 139.719 39.822 61.0553 36.5607 56.8136C35.4736 55.464 30.5817 54.5 24.9651 54.5H15L17.7177 59.7057Z" fill="#CC1436"/>
<path d="M53.4106 58.7416C55.5848 63.3689 89.6471 126.416 90.3718 127.38C91.0966 128.344 100.337 110.027 100.156 107.714C100.156 106.557 93.8143 94.2174 86.2046 80.5284L72.2536 55.464L61.745 54.8856C51.2364 54.3071 51.2364 54.3071 53.4106 58.7416Z" fill="#CC1436"/>
<path d="M132.225 78.6003C125.703 90.7469 120.267 101.544 120.267 102.701C120.267 104.05 123.71 104.629 129.689 104.243L139.291 103.665L145.995 91.3253C149.619 84.5772 153.605 78.0219 154.692 76.8651C157.229 74.1658 169.549 73.7802 168.824 76.6723C168.462 77.8291 163.751 87.0836 158.316 97.495L148.351 116.197H111.57L95.9887 145.503L80.407 174.616L94.1769 200.452C101.787 214.719 108.49 225.709 109.034 225.323C109.396 224.745 118.818 207.971 129.689 188.112L149.256 151.865L140.016 151.287C134.762 150.901 129.87 151.48 128.964 152.444C127.877 153.601 123.347 161.506 118.455 170.375C113.745 179.244 109.215 186.377 108.49 186.184C107.766 186.184 105.591 183.485 103.78 180.4L100.699 175.002L111.027 155.722L121.536 136.441L158.859 134.513L178.608 97.8806C189.66 77.6363 198.901 60.0912 199.444 58.7416C200.169 57.0064 194.009 56.4279 172.267 56.4279H144.365L132.225 78.6003Z" fill="#CC1436"/>
<path d="M17.7177 59.7057C20.6167 65.8754 71.3478 159.385 72.2537 160.156C72.9785 160.927 82.2188 143.768 82.2188 141.647C82.2188 139.719 39.822 61.0553 36.5607 56.8136C35.4736 55.464 30.5817 54.5 24.9651 54.5H15L17.7177 59.7057Z" fill="#CC1436"/>
<path d="M53.4106 58.7416C55.5848 63.3689 89.6471 126.416 90.3718 127.38C91.0966 128.344 100.337 110.027 100.156 107.714C100.156 106.557 93.8143 94.2174 86.2046 80.5284L72.2536 55.464L61.745 54.8856C51.2364 54.3071 51.2364 54.3071 53.4106 58.7416Z" fill="#CC1436"/>
<path d="M132.225 78.6003C125.703 90.7469 120.267 101.544 120.267 102.701C120.267 104.05 123.71 104.629 129.689 104.243L139.291 103.665L145.995 91.3253C149.619 84.5772 153.605 78.0219 154.692 76.8651C157.229 74.1658 169.549 73.7802 168.824 76.6723C168.462 77.8291 163.751 87.0836 158.316 97.495L148.351 116.197H111.57L95.9887 145.503L80.407 174.616L94.1769 200.452C101.787 214.719 108.49 225.709 109.034 225.323C109.396 224.745 118.818 207.971 129.689 188.112L149.256 151.865L140.016 151.287C134.762 150.901 129.87 151.48 128.964 152.444C127.877 153.601 123.347 161.506 118.455 170.375C113.745 179.244 109.215 186.377 108.49 186.184C107.766 186.184 105.591 183.485 103.78 180.4L100.699 175.002L111.027 155.722L121.536 136.441L158.859 134.513L178.608 97.8806C189.66 77.6363 198.901 60.0912 199.444 58.7416C200.169 57.0064 194.009 56.4279 172.267 56.4279H144.365L132.225 78.6003Z" fill="#CC1436"/>
<path d="M244.928 116L221.968 58.6H232.054L245.748 93.45C246.404 95.1447 246.978 96.6753 247.47 98.042C248.017 99.4087 248.481 100.666 248.864 101.814C249.247 102.907 249.602 103.946 249.93 104.93C250.258 105.914 250.586 106.898 250.914 107.882L248.782 107.964C249.165 106.652 249.575 105.285 250.012 103.864C250.449 102.443 250.941 100.885 251.488 99.19C252.089 97.4953 252.8 95.582 253.62 93.45L266.33 58.6H276.662L253.538 116H244.928ZM313.117 116.82C309.071 116.82 305.327 116.082 301.883 114.606C298.493 113.13 295.514 111.08 292.945 108.456C290.43 105.777 288.462 102.661 287.041 99.108C285.674 95.5 284.991 91.564 284.991 87.3C284.991 83.036 285.674 79.1273 287.041 75.574C288.462 71.966 290.43 68.85 292.945 66.226C295.514 63.5473 298.493 61.47 301.883 59.994C305.327 58.518 309.071 57.78 313.117 57.78C317.162 57.78 320.879 58.518 324.269 59.994C327.713 61.47 330.692 63.5473 333.207 66.226C335.776 68.9047 337.744 72.048 339.111 75.656C340.532 79.2093 341.243 83.0907 341.243 87.3C341.243 91.5093 340.532 95.418 339.111 99.026C337.744 102.579 335.776 105.695 333.207 108.374C330.692 111.053 327.713 113.13 324.269 114.606C320.879 116.082 317.162 116.82 313.117 116.82ZM313.117 108.21C315.905 108.21 318.447 107.691 320.743 106.652C323.093 105.613 325.116 104.165 326.811 102.306C328.505 100.393 329.817 98.1787 330.747 95.664C331.731 93.0947 332.223 90.3067 332.223 87.3C332.223 84.2933 331.731 81.5327 330.747 79.018C329.817 76.4487 328.505 74.2347 326.811 72.376C325.116 70.4627 323.093 68.9867 320.743 67.948C318.447 66.9093 315.905 66.39 313.117 66.39C310.329 66.39 307.759 66.9093 305.409 67.948C303.113 68.9867 301.09 70.4353 299.341 72.294C297.646 74.1527 296.334 76.3667 295.405 78.936C294.475 81.4507 294.011 84.2387 294.011 87.3C294.011 90.3067 294.475 93.0947 295.405 95.664C296.334 98.2333 297.646 100.447 299.341 102.306C301.09 104.165 303.113 105.613 305.409 106.652C307.759 107.691 310.329 108.21 313.117 108.21ZM370.687 116V87.382L371.261 91.4L348.055 58.6H358.715L376.427 84.02L374.377 83.774L390.367 58.6H400.535L378.313 92.302L379.543 86.726V116H370.687ZM401.771 116L423.993 58.6H433.013L455.071 116H445.641L432.521 81.396C432.357 81.0133 432.029 80.084 431.537 78.608C431.1 77.132 430.58 75.492 429.979 73.688C429.378 71.884 428.831 70.244 428.339 68.768C427.847 67.2373 427.519 66.2533 427.355 65.816L429.241 65.734C428.913 66.6633 428.503 67.8387 428.011 69.26C427.574 70.6813 427.082 72.1847 426.535 73.77C426.043 75.3553 425.551 76.8587 425.059 78.28C424.567 79.6467 424.157 80.7947 423.829 81.724L410.791 116H401.771ZM411.611 101.732L414.891 93.204H440.967L444.739 101.732H411.611ZM494.157 116.82C490.003 116.82 486.121 116.082 482.513 114.606C478.905 113.075 475.735 110.971 473.001 108.292C470.268 105.613 468.136 102.497 466.605 98.944C465.129 95.336 464.391 91.4547 464.391 87.3C464.391 83.2 465.129 79.3733 466.605 75.82C468.136 72.2667 470.241 69.178 472.919 66.554C475.653 63.8753 478.823 61.798 482.431 60.322C486.039 58.846 489.921 58.108 494.075 58.108C496.973 58.108 499.788 58.518 502.521 59.338C505.309 60.158 507.824 61.306 510.065 62.782C512.307 64.258 514.138 65.9527 515.559 67.866L509.819 73.852C508.179 72.2667 506.485 70.9547 504.735 69.916C503.041 68.8773 501.291 68.0847 499.487 67.538C497.683 66.9913 495.879 66.718 494.075 66.718C491.123 66.718 488.39 67.2373 485.875 68.276C483.415 69.3147 481.229 70.7633 479.315 72.622C477.457 74.4807 476.008 76.6673 474.969 79.182C473.931 81.642 473.411 84.348 473.411 87.3C473.411 90.1427 473.958 92.8487 475.051 95.418C476.145 97.9327 477.648 100.147 479.561 102.06C481.529 103.973 483.771 105.477 486.285 106.57C488.855 107.663 491.561 108.21 494.403 108.21C496.535 108.21 498.558 107.909 500.471 107.308C502.385 106.652 504.079 105.75 505.555 104.602C507.031 103.454 508.179 102.142 508.999 100.666C509.819 99.1353 510.229 97.5227 510.229 95.828V94.188L511.459 95.336H493.911V86.562H519.331C519.441 87.1633 519.523 87.7647 519.577 88.366C519.632 88.9127 519.659 89.4593 519.659 90.006C519.714 90.498 519.741 90.99 519.741 91.482C519.741 95.254 519.085 98.698 517.773 101.814C516.461 104.875 514.63 107.527 512.279 109.768C509.983 112.009 507.277 113.759 504.161 115.016C501.1 116.219 497.765 116.82 494.157 116.82ZM536.193 116V58.6H572.355V67.128H545.049V107.472H572.355V116H536.193ZM540.211 90.826V82.298H567.845V90.826H540.211ZM591.482 116V58.6H615.918C619.198 58.6 622.204 59.42 624.938 61.06C627.726 62.6453 629.94 64.832 631.58 67.62C633.22 70.3533 634.04 73.442 634.04 76.886C634.04 80.002 633.22 82.8993 631.58 85.578C629.94 88.2567 627.753 90.416 625.02 92.056C622.286 93.6413 619.252 94.434 615.918 94.434H600.338V116H591.482ZM625.594 116L610.998 90.088L620.1 88.038L636.336 116.082L625.594 116ZM600.338 85.906H616.738C618.323 85.906 619.744 85.5233 621.002 84.758C622.259 83.938 623.243 82.8447 623.954 81.478C624.664 80.0567 625.02 78.4987 625.02 76.804C625.02 74.8907 624.555 73.2233 623.626 71.802C622.751 70.326 621.494 69.178 619.854 68.358C618.268 67.538 616.464 67.128 614.442 67.128H600.338V85.906Z" fill="black"/>
<path d="M245.748 219.32C242.632 219.32 239.735 218.91 237.056 218.09C234.432 217.27 232.027 216.04 229.84 214.4C227.708 212.705 225.795 210.628 224.1 208.168L230.168 201.198C232.847 205.025 235.416 207.676 237.876 209.152C240.336 210.628 243.261 211.366 246.65 211.366C248.727 211.366 250.613 211.038 252.308 210.382C254.003 209.726 255.342 208.824 256.326 207.676C257.31 206.528 257.802 205.216 257.802 203.74C257.802 202.756 257.638 201.827 257.31 200.952C256.982 200.077 256.463 199.285 255.752 198.574C255.096 197.863 254.221 197.207 253.128 196.606C252.089 196.005 250.859 195.485 249.438 195.048C248.017 194.556 246.377 194.146 244.518 193.818C241.566 193.217 238.997 192.424 236.81 191.44C234.623 190.456 232.792 189.226 231.316 187.75C229.84 186.274 228.747 184.607 228.036 182.748C227.325 180.835 226.97 178.703 226.97 176.352C226.97 174.056 227.462 171.924 228.446 169.956C229.485 167.988 230.879 166.293 232.628 164.872C234.432 163.396 236.537 162.275 238.942 161.51C241.347 160.69 243.944 160.28 246.732 160.28C249.684 160.28 252.39 160.663 254.85 161.428C257.31 162.193 259.497 163.341 261.41 164.872C263.323 166.348 264.909 168.179 266.166 170.366L259.934 176.516C258.841 174.712 257.611 173.209 256.244 172.006C254.877 170.749 253.374 169.819 251.734 169.218C250.094 168.562 248.345 168.234 246.486 168.234C244.354 168.234 242.495 168.562 240.91 169.218C239.325 169.874 238.067 170.803 237.138 172.006C236.263 173.154 235.826 174.521 235.826 176.106C235.826 177.254 236.045 178.32 236.482 179.304C236.919 180.233 237.575 181.081 238.45 181.846C239.379 182.557 240.609 183.213 242.14 183.814C243.671 184.361 245.502 184.853 247.634 185.29C250.641 185.946 253.319 186.793 255.67 187.832C258.021 188.816 260.016 189.991 261.656 191.358C263.296 192.725 264.526 194.255 265.346 195.95C266.221 197.645 266.658 199.476 266.658 201.444C266.658 205.107 265.811 208.277 264.116 210.956C262.421 213.635 260.016 215.712 256.9 217.188C253.784 218.609 250.067 219.32 245.748 219.32ZM303.232 219.32C299.187 219.32 295.442 218.582 291.998 217.106C288.609 215.63 285.629 213.58 283.06 210.956C280.545 208.277 278.577 205.161 277.156 201.608C275.789 198 275.106 194.064 275.106 189.8C275.106 185.536 275.789 181.627 277.156 178.074C278.577 174.466 280.545 171.35 283.06 168.726C285.629 166.047 288.609 163.97 291.998 162.494C295.442 161.018 299.187 160.28 303.232 160.28C307.277 160.28 310.995 161.018 314.384 162.494C317.828 163.97 320.807 166.047 323.322 168.726C325.891 171.405 327.859 174.548 329.226 178.156C330.647 181.709 331.358 185.591 331.358 189.8C331.358 194.009 330.647 197.918 329.226 201.526C327.859 205.079 325.891 208.195 323.322 210.874C320.807 213.553 317.828 215.63 314.384 217.106C310.995 218.582 307.277 219.32 303.232 219.32ZM303.232 210.71C306.02 210.71 308.562 210.191 310.858 209.152C313.209 208.113 315.231 206.665 316.926 204.806C318.621 202.893 319.933 200.679 320.862 198.164C321.846 195.595 322.338 192.807 322.338 189.8C322.338 186.793 321.846 184.033 320.862 181.518C319.933 178.949 318.621 176.735 316.926 174.876C315.231 172.963 313.209 171.487 310.858 170.448C308.562 169.409 306.02 168.89 303.232 168.89C300.444 168.89 297.875 169.409 295.524 170.448C293.228 171.487 291.205 172.935 289.456 174.794C287.761 176.653 286.449 178.867 285.52 181.436C284.591 183.951 284.126 186.739 284.126 189.8C284.126 192.807 284.591 195.595 285.52 198.164C286.449 200.733 287.761 202.947 289.456 204.806C291.205 206.665 293.228 208.113 295.524 209.152C297.875 210.191 300.444 210.71 303.232 210.71ZM366.637 219.32C362.646 219.32 358.983 218.609 355.649 217.188C352.314 215.767 349.417 213.744 346.957 211.12C344.497 208.441 342.583 205.298 341.217 201.69C339.905 198.082 339.249 194.119 339.249 189.8C339.249 185.7 339.959 181.901 341.381 178.402C342.857 174.849 344.879 171.733 347.449 169.054C350.018 166.375 352.997 164.298 356.386 162.822C359.776 161.346 363.439 160.608 367.375 160.608C370.163 160.608 372.869 161.045 375.493 161.92C378.171 162.74 380.577 163.915 382.709 165.446C384.895 166.922 386.672 168.617 388.039 170.53L382.135 176.68C380.549 175.095 378.937 173.783 377.297 172.744C375.711 171.651 374.071 170.831 372.377 170.284C370.737 169.737 369.069 169.464 367.375 169.464C364.696 169.464 362.181 169.983 359.831 171.022C357.535 172.006 355.512 173.4 353.763 175.204C352.068 177.008 350.729 179.167 349.745 181.682C348.761 184.142 348.269 186.848 348.269 189.8C348.269 192.916 348.733 195.759 349.663 198.328C350.647 200.843 352.013 203.002 353.763 204.806C355.512 206.61 357.589 208.004 359.995 208.988C362.455 209.917 365.161 210.382 368.113 210.382C369.917 210.382 371.693 210.136 373.443 209.644C375.192 209.152 376.832 208.441 378.363 207.512C379.893 206.583 381.287 205.489 382.545 204.232L386.973 211.448C385.715 212.924 383.993 214.263 381.807 215.466C379.675 216.669 377.269 217.625 374.591 218.336C371.967 218.992 369.315 219.32 366.637 219.32ZM396.871 218.5V210.3H406.137V169.3H396.871V161.1H424.259V169.3H414.993V210.3H424.259V218.5H396.871ZM432.175 218.5L454.397 161.1H463.417L485.475 218.5H476.045L462.925 183.896C462.761 183.513 462.433 182.584 461.941 181.108C461.504 179.632 460.984 177.992 460.383 176.188C459.782 174.384 459.235 172.744 458.743 171.268C458.251 169.737 457.923 168.753 457.759 168.316L459.645 168.234C459.317 169.163 458.907 170.339 458.415 171.76C457.978 173.181 457.486 174.685 456.939 176.27C456.447 177.855 455.955 179.359 455.463 180.78C454.971 182.147 454.561 183.295 454.233 184.224L441.195 218.5H432.175ZM442.015 204.232L445.295 195.704H471.371L475.143 204.232H442.015ZM495.577 218.5V161.1H504.433V209.972H531.329V218.5H495.577Z" fill="black"/>
<path d="M543.217 218.5L565.439 161.1H574.459L596.517 218.5H587.087L573.967 183.896C573.803 183.513 573.475 182.584 572.983 181.108C572.545 179.632 572.026 177.992 571.425 176.188C570.823 174.384 570.277 172.744 569.785 171.268C569.293 169.737 568.965 168.753 568.801 168.316L570.687 168.234C570.359 169.163 569.949 170.339 569.457 171.76C569.019 173.181 568.527 174.685 567.981 176.27C567.489 177.855 566.997 179.359 566.505 180.78C566.013 182.147 565.603 183.295 565.275 184.224L552.237 218.5H543.217ZM553.057 204.232L556.337 195.704H582.413L586.185 204.232H553.057ZM604.487 218.5V210.3H613.753V169.3H604.487V161.1H631.875V169.3H622.609V210.3H631.875V218.5H604.487Z" fill="#CC1436"/>
</svg>
