<svg width="120" height="120" viewBox="0 0 120 120" fill="none" xmlns="http://www.w3.org/2000/svg">
<g clip-path="url(#clip0_1551_623)">
<path d="M120 60.0016V59.9984C120 26.8622 93.1378 0 60.0016 0L59.9984 0C26.8622 0 0 26.8622 0 59.9984V60.0016C0 93.1378 26.8622 120 59.9984 120H60.0016C93.1378 120 120 93.1378 120 60.0016Z" fill="#1F2124"/>
<g filter="url(#filter0_i_1551_623)">
<path d="M26.0613 33.24C27.1246 35.5031 45.7328 69.8023 46.0651 70.0852C46.3309 70.368 49.7203 64.074 49.7203 63.296C49.7203 62.5888 34.1692 33.735 32.9729 32.1792C32.5742 31.6842 30.7798 31.3306 28.7196 31.3306H25.0645L26.0613 33.24Z" fill="white"/>
<path d="M39.1534 32.8864C39.9509 34.5837 52.445 57.7091 52.7108 58.0627C52.9766 58.4163 56.366 51.6979 56.2995 50.8493C56.2995 50.425 53.9735 45.8989 51.1823 40.8778L46.065 31.6841L42.2105 31.472C38.3559 31.2598 38.3559 31.2598 39.1534 32.8864Z" fill="white"/>
<path d="M68.0626 40.1705C65.6701 44.6259 63.6764 48.5862 63.6764 49.0106C63.6764 49.5056 64.9391 49.7178 67.1322 49.5763L70.6545 49.3642L73.1134 44.8381C74.4426 42.3629 75.9046 39.9584 76.3034 39.5341C77.2338 38.544 81.7529 38.4025 81.4871 39.4633C81.3542 39.8877 79.6263 43.2822 77.6325 47.1011L73.9774 53.961H60.4864L54.7711 64.7104L49.0557 75.3891L54.1065 84.8656C56.8977 90.0989 59.3566 94.13 59.556 93.9885C59.6889 93.7764 63.1447 87.6237 67.1322 80.3395L74.3096 67.0442L70.9203 66.832C68.993 66.6906 67.1987 66.9027 66.8664 67.2563C66.4676 67.6807 64.8062 70.5802 63.0118 73.8333C61.2839 77.0864 59.6225 79.7031 59.3567 79.6323C59.0908 79.6323 58.2933 78.6423 57.6287 77.5107L56.499 75.5306L60.2871 68.4586L64.1416 61.3866L77.8319 60.6794L85.0758 47.2425C89.1297 39.8169 92.5191 33.3814 92.7184 32.8864C92.9843 32.2499 90.7247 32.0377 82.7498 32.0377H72.5153L68.0626 40.1705Z" fill="white"/>
<path d="M26.0613 33.24C27.1246 35.5031 45.7328 69.8023 46.0651 70.0852C46.3309 70.368 49.7203 64.074 49.7203 63.296C49.7203 62.5888 34.1692 33.735 32.9729 32.1792C32.5742 31.6842 30.7798 31.3306 28.7196 31.3306H25.0645L26.0613 33.24Z" fill="white"/>
<path d="M39.1534 32.8864C39.9509 34.5837 52.445 57.7091 52.7108 58.0627C52.9766 58.4163 56.366 51.6979 56.2995 50.8493C56.2995 50.425 53.9735 45.8989 51.1823 40.8778L46.065 31.6841L42.2105 31.472C38.3559 31.2598 38.3559 31.2598 39.1534 32.8864Z" fill="white"/>
<path d="M68.0626 40.1705C65.6701 44.6259 63.6764 48.5862 63.6764 49.0106C63.6764 49.5056 64.9391 49.7178 67.1322 49.5763L70.6545 49.3642L73.1134 44.8381C74.4426 42.3629 75.9046 39.9584 76.3034 39.5341C77.2338 38.544 81.7529 38.4025 81.4871 39.4633C81.3542 39.8877 79.6263 43.2822 77.6325 47.1011L73.9774 53.961H60.4864L54.7711 64.7104L49.0557 75.3891L54.1065 84.8656C56.8977 90.0989 59.3566 94.13 59.556 93.9885C59.6889 93.7764 63.1447 87.6237 67.1322 80.3395L74.3096 67.0442L70.9203 66.832C68.993 66.6906 67.1987 66.9027 66.8664 67.2563C66.4676 67.6807 64.8062 70.5802 63.0118 73.8333C61.2839 77.0864 59.6225 79.7031 59.3567 79.6323C59.0908 79.6323 58.2933 78.6423 57.6287 77.5107L56.499 75.5306L60.2871 68.4586L64.1416 61.3866L77.8319 60.6794L85.0758 47.2425C89.1297 39.8169 92.5191 33.3814 92.7184 32.8864C92.9843 32.2499 90.7247 32.0377 82.7498 32.0377H72.5153L68.0626 40.1705Z" fill="white"/>
</g>
</g>
<defs>
<filter id="filter0_i_1551_623" x="25.0645" y="31.3306" width="67.6743" height="66.1176" filterUnits="userSpaceOnUse" color-interpolation-filters="sRGB">
<feFlood flood-opacity="0" result="BackgroundImageFix"/>
<feBlend mode="normal" in="SourceGraphic" in2="BackgroundImageFix" result="shape"/>
<feColorMatrix in="SourceAlpha" type="matrix" values="0 0 0 0 0 0 0 0 0 0 0 0 0 0 0 0 0 0 127 0" result="hardAlpha"/>
<feOffset dy="3.456"/>
<feGaussianBlur stdDeviation="1.728"/>
<feComposite in2="hardAlpha" operator="arithmetic" k2="-1" k3="1"/>
<feColorMatrix type="matrix" values="0 0 0 0 0 0 0 0 0 0 0 0 0 0 0 0 0 0 0.25 0"/>
<feBlend mode="normal" in2="shape" result="effect1_innerShadow_1551_623"/>
</filter>
<clipPath id="clip0_1551_623">
<rect width="120" height="120" fill="white"/>
</clipPath>
</defs>
</svg>
