<svg width="200" height="200" viewBox="0 0 200 200" fill="none" xmlns="http://www.w3.org/2000/svg">
<path d="M17.7177 59.7057C20.6167 65.8754 71.3478 159.385 72.2537 160.156C72.9785 160.927 82.2188 143.768 82.2188 141.647C82.2188 139.719 39.822 61.0553 36.5607 56.8136C35.4736 55.464 30.5817 54.5 24.9651 54.5H15L17.7177 59.7057Z" fill="#CC1436"/>
<path d="M53.4106 58.7416C55.5848 63.3689 89.6471 126.416 90.3718 127.38C91.0966 128.344 100.337 110.027 100.156 107.714C100.156 106.557 93.8143 94.2174 86.2046 80.5284L72.2536 55.464L61.745 54.8856C51.2364 54.3071 51.2364 54.3071 53.4106 58.7416Z" fill="#CC1436"/>
<path d="M132.225 78.6003C125.703 90.7469 120.267 101.544 120.267 102.701C120.267 104.05 123.71 104.629 129.689 104.243L139.291 103.665L145.995 91.3253C149.619 84.5772 153.605 78.0219 154.692 76.8651C157.229 74.1658 169.549 73.7802 168.824 76.6723C168.462 77.8291 163.751 87.0836 158.316 97.495L148.351 116.197H111.57L95.9887 145.503L80.407 174.616L94.1769 200.452C101.787 214.719 108.49 225.709 109.034 225.323C109.396 224.745 118.818 207.971 129.689 188.112L149.256 151.865L140.016 151.287C134.762 150.901 129.87 151.48 128.964 152.444C127.877 153.601 123.347 161.506 118.455 170.375C113.745 179.244 109.215 186.377 108.49 186.184C107.766 186.184 105.591 183.485 103.78 180.4L100.699 175.002L111.027 155.722L121.536 136.441L158.859 134.513L178.608 97.8806C189.66 77.6363 198.901 60.0912 199.444 58.7416C200.169 57.0064 194.009 56.4279 172.267 56.4279H144.365L132.225 78.6003Z" fill="#CC1436"/>
</svg>
